<?xml version="1.0" encoding="UTF-8" standalone="no"?><!DOCTYPE svg PUBLIC "-//W3C//DTD SVG 1.1//EN" "http://www.w3.org/Graphics/SVG/1.1/DTD/svg11.dtd"><svg width="100%" height="100%" viewBox="0 0 1024 1024" version="1.1" xmlns="http://www.w3.org/2000/svg" xmlns:xlink="http://www.w3.org/1999/xlink" xml:space="preserve" xmlns:serif="http://www.serif.com/" style="fill-rule:evenodd;clip-rule:evenodd;stroke-linecap:round;stroke-linejoin:round;stroke-miterlimit:1.5;"><g><path d="M157.489,512l375.602,0" style="fill:none;stroke:#000;stroke-width:70.83px;"/><path d="M379.752,358.661c130.61,130.611 153.339,153.339 153.339,153.339" style="fill:none;stroke:#000;stroke-width:70.83px;"/><path d="M379.752,665.339c130.61,-130.611 153.339,-153.339 153.339,-153.339" style="fill:none;stroke:#000;stroke-width:70.83px;"/></g><g><path d="M762.325,255.597l-0,512.806l104.186,-0l0,-512.806l-104.186,0Z"/><path d="M658.139,768.403l104.186,-0l-0,-512.806l-89.297,0l37.234,0c13.808,0 27.051,5.486 36.814,15.249c9.764,9.764 15.249,23.006 15.249,36.814l-0,408.361c-0,13.892 -5.519,27.216 -15.342,37.039c-9.824,9.824 -23.147,15.343 -37.04,15.343l-51.804,-0Z"/><path d="M673.028,255.597l-6.202,0l199.685,0l0,-46.136c0,-32.06 -25.989,-58.05 -58.049,-58.05l-343.565,0c-13.158,0 -25.777,5.227 -35.081,14.531c-9.303,9.304 -14.53,21.922 -14.53,35.08c-0,2.025 -0,4.055 -0,6.077c-0,26.785 21.713,48.498 48.498,48.498l209.244,0Z"/><path d="M666.826,255.597l95.499,0l-95.499,0Z"/><path d="M866.511,768.403l-401.53,-0c-27.446,-0 -49.695,22.249 -49.695,49.695c-0,1.759 -0,3.522 -0,5.28c-0,13.052 5.184,25.569 14.413,34.798c9.229,9.228 21.746,14.413 34.797,14.413l344.557,-0c31.733,-0 57.458,-25.725 57.458,-57.459c0,-24.14 0,-46.727 0,-46.727Z"/><path d="M729.028,768.403l33.297,-0l-33.297,-0Z"/></g></svg>